<svg id="_1" data-name="1" xmlns="http://www.w3.org/2000/svg" viewBox="0 0 492.25 241.18"><defs><style>.cls-1,.cls-2,.cls-3,.cls-4{fill:#f7fcff;stroke-miterlimit:10;stroke-width:0.25px;}.cls-1,.cls-3,.cls-4{stroke:#000;}.cls-2{stroke:#1a1a1a;}.cls-2,.cls-3{fill-rule:evenodd;}.cls-4{font-size:28.04px;font-family:ComicSansMS, Comic Sans MS;}</style></defs><rect class="cls-1" x="0.13" y="188.14" width="492" height="3.97"/><path class="cls-2" d="M179.68,249v31.66l2.44,2.41H155.79l2-2.41h.06V261.46l-1.31-2.64h1.37c-.44-3.86-4.94-7-10.32-7s-9.94,3.1-10.38,7h1.38l-1.32,2.64v19.15h.06l2.38,2.41H113.44l1.94-2.41V245.4l-5.69-3.23h-.19v-.31h5.88v-5.23h64.3v5.23h5.94v.31h-.31l-5.63,3.23V249Z" transform="translate(-98.88 -88.88)"/><path class="cls-3" d="M413.24,279.79h1.25L405,266.51A33.51,33.51,0,0,0,386,261a33.91,33.91,0,0,0-17.64,4.68l-10.07,14.15h1.81V283H336.3v-3.23h3.13L359,252.27v-4.14h4.19l6.94-14.46v-.32h.12l1.94-4.09h-.75v-3.82h2.19v-.73h-3.25v-4.14h4.94c3.69-21,5.44-57.13,6-68.68h-.13V151h.19l.06-2.23h-.87V145h2.25v-4.59h2.62v-6.51h.88V128h1v5.95h.94v6.51h2.56V145h2.32v3.73h-.94l.13,2.23h.12v.91h-.06c.31,6.5.94,20.88,2.19,36l.06.13-.06.05c.75,9.14,1.69,18.47,2.81,26.47.31,2.18.69,4.14.94,6h5v4.14H400.1v.73h2.13v3.82h-.5l1.94,4.09,7.07,14.78h2.18V252l.44-.14,19.89,27.93H437V283H413.24ZM365,247.18h0l6.32-2.69-3.69-2.59Zm3.57-7.42h0l5.62-2.68L371,234.76Zm3.31-6.82h0L376,231l-2.5-1.54Zm28.52-3.68h-.19l-2.37,1.63,4.19,1.78Zm2.69,5.55h0L400.1,237l5.07,2.32Zm3.32,6.91h0l-4,2.77,6.7,2.82Zm-20.21-93h0l-1.5.91-1.5-.91ZM384.21,150h0l-1.75,1,.13-2Zm-.93,1h0l1.25-.77,1.12.77Zm1.75-1h0l1.25-.72v1.54Zm1.25,2h0l-1.88,1.41-1.94-1.5h3.82Zm-2.38,1.77h0L382.34,155l.06-2.45Zm-1.56,1.82h0l2-1.5,1.81,1.5Zm2.44-1.86h0l1.5-1.14v2.32Zm1.5,2.77h0l-2,1.46-1.82-1.5h3.82Zm-2.57,1.78h0l-1.62,1.27.12-2.59ZM382,160.17h0l2.19-1.55,1.82,1.59h-4Zm2.63-1.91h0l1.63-1.19v2.55Zm1.63,2.91h0l-2.07,1.45-1.94-1.54h4ZM383.65,163h0l-1.81,1.27V164l.12-2.37ZM382,164.76h0l2.13-1.45,1.81,1.45Zm2.57-1.77h0l1.75-1.18v2.54Zm1.75,2.95h0l-2.07,1.32L382,165.63h4.19l.13,0Zm-2.63,1.64h0l-2.06,1.28.18-2.69Zm-2,1.82h0l2.44-1.5,2,1.5Zm2.88-1.82h0l1.75-1v2.27Zm2.94-1.77h0l.18-.18h4.19l-2.12,1.63-2.25-1.41Zm-5.7-.18h0v0Zm4.51,4.68h0l-2.38,1.46-2.06-1.5h4.44Zm-2.88,1.77h0l-2.06,1.28.12-2.69ZM381.21,174h0l2.63-1.55L386,174h-4.76Zm3.13-1.87h0l1.81-1.18v2.59Zm1.75,2.87h0l-2.38,1.5-2.12-1.59h4.5Zm-2.88,1.82h0L381,178.18l.13-2.91Zm-2,1.82h0l2.44-1.5,2.06,1.5Zm3-1.82h0l1.88-1.23V177l-.06.72v.46Zm-2.87-1.91h0l-.19.41.06-.41Zm4.5,4.59h0l-2.25,1.46-2-1.46ZM383,181.27h0l-2.38,1.55.19-3.09Zm-1.94,2h0l2.44-1.64,2.31,1.64Zm3-2h0L386,180l-.06.77V182l-.07.55Zm1.37,2.86h0l-2.18,1.32-1.82-1.32Zm-2.81,1.78h0l-2.38,1.41.32-3Zm-2,1.95h0l2.56-1.59,2.07,1.59Zm3.25-1.95h0l1.94-1.28v.59l-.13,2Zm1.75,2.82h0l-2.37,1.45-1.88-1.45Zm-3,1.81h0l-2.75,1.73.31-3.54Zm-1.81,1.92h0l2.37-1.46,2,1.46Zm3.06-1.92h0l1.75-1v.18l-.06.23v1.18l-.06.73Zm1.19,2.78h0l-2.25,1.32-1.75-1.32Zm-2.88,1.77h0l-2.75,1.69.37-3.46Zm-1.94,2h0l2.51-1.55L384.9,197Zm3.19-2h0l2-1.27-.06.5v.36l-.12,1.73Zm1.19,2.82h0l-2.38,1.41-1.87-1.41Zm-3.06,1.78h0l-2.57,1.5.38-3.23Zm-2.07,1.95h0l2.69-1.5,1.88,1.5Zm3.26-1.91h0l2.37-1.32c-.06,1-.12,2-.25,3Zm1.68,2.82h0l-2.37,1.32-1.82-1.32Zm-3,1.73h0l-2.94,1.68c.13-1.09.25-2.27.38-3.41h.25Zm-2.06,2h0l2.56-1.55,2,1.55Zm3.25-1.91h0l2.13-1.23c-.07.91-.13,1.82-.25,2.68Zm.81,2.77h0l-2.06,1.23-1.57-1.23Zm-2.75,1.64h0L378,210.24a24.5,24.5,0,0,0,.37-3.18h.32Zm-2.38,2.14h0l2.88-1.73,2.32,1.73Zm3.57-2.1h0l2.5-1.45c-.12,1-.19,2.09-.37,3.05Zm1.69,3h0l-2.75,1.55-1.94-1.55Zm-3.38,1.91h0l-2.69,1.64h-.19c.13-1.14.25-2.32.44-3.5Zm-1.44,1.64h0l2-1.18,1.5,1.18Zm2.69-1.55h0l2.38-1.36c-.19.95-.31,1.95-.44,2.82Zm1.63,2.41h0L380,217.93l-2.31-1.82Zm-3.69,2.19h0l-2.82,1.63c.13-1.09.38-2.23.5-3.36Zm-2.69,2.27h0l3.19-1.82,2.12,1.64v0l-.06.14Zm3.88-2.23h0l2.44-1.41c-.25,1-.44,2-.69,2.78Zm7.13-69.59h0l1.56.91,1.44-.91Zm2,1.23h0l1.5.86-.06-1.82Zm.81,1h0l-1.19-.77-1.18.77Zm-1.69-1h0l-1.37-.86v1.77Zm-1.37,2h0l2.06,1.5,1.75-1.45v-.05Zm2.5,1.86h0l1.37,1.1-.06-2.14Zm1.44,1.73h0l-1.82-1.41-1.94,1.5h3.76Zm-2.32-1.77h0l-1.62-1.23V155Zm-1.5,2.73h0l2.07,1.5,1.68-1.5Zm2.5,1.82h0l1.5,1.09-.06-2.28Zm1.57,1.73h0l-1.94-1.37-1.82,1.59h3.76Zm-2.44-1.73h0L387.47,157v2.87Zm-1.75,2.82h0l2.25,1.54,1.94-1.54Zm2.75,1.91h0l1.62,1.09-.12-2.32Zm1.62,1.77h0l-2.06-1.45L388,164.76ZM389.28,163h0l-1.81-1.28v2.78Zm.94,4.59h0l1.88,1.18-.13-2.5Zm1.94,1.77h0l-2.38-1.45-2.06,1.5h4.44Zm-2.88-1.77h0l-1.81-1.14v2.46Zm-1.69,2.69h0l2.44,1.5,2.07-1.5Zm2.94,1.81h0l1.88,1.19-.19-2.41Zm1.88,1.78h0l-2.32-1.46L388,174h4.5Zm-2.82-1.78h0l-2.06-1.27v2.78Zm-2,2.78h0l2.57,1.59,2.19-1.59Zm3.13,1.91h0l2,1.27-.19-2.64Zm2,1.82h0l-2.5-1.5-2.06,1.5Zm-3-1.82h0l-2.13-1.37V177l.06.72v.55Zm-1.63,2.68h0l2.13,1.46,2-1.46Zm2.75,1.82h0l2.19,1.41-.19-2.82Zm2,2h0l-2.43-1.64-2.32,1.64Zm-3.06-2h0l-2.13-1.37.07.91V182l.06.69Zm-1.37,2.86h0l2.18,1.32,1.82-1.32Zm2.81,1.78h0l2.13,1.27-.19-2.73Zm2,1.95h0l-2.5-1.59-2.19,1.59ZM390,185.87h0l-2.25-1.37.12.68.07,2.19Zm-1.75,2.82h0l2.25,1.45,2-1.45Zm2.94,1.81h0l2.56,1.64-.31-3.27Zm1.81,1.92h0L390.72,191l-2,1.46Zm-3-1.92h0l-2-1.18v.32l.06.23v1.18l.07.86Zm-1.19,2.78h0L391,194.6l1.87-1.32Zm2.82,1.77h0l2.56,1.55-.25-3.23Zm2,2h0l-2.5-1.55L389,197Zm-3.19-2h0l-2.19-1.36.06.59v.36l.07,1.91Zm-1.25,2.82h0l2.44,1.41,1.75-1.41Zm3.13,1.78h0l2.25,1.41-.32-3Zm1.93,1.95h0l-2.56-1.5-2,1.5ZM391,199.69h0l-2.5-1.5c.06,1.14.19,2.23.25,3.28Zm-1.63,2.82h0l2.38,1.32,1.82-1.32Zm3.07,1.73h0l2.75,1.59a28.57,28.57,0,0,1-.37-3.32h-.07Zm2.06,2h0l-2.69-1.55-1.93,1.55Zm-3.31-1.91h0l-2.32-1.37c.07,1,.19,2,.26,3Zm-.75,2.77h0l2.06,1.23,1.57-1.23Zm2.75,1.64h0l2.5,1.45c-.12-1-.31-2-.37-3.09h-.06Zm2.38,2.14h0l-3-1.73-2.19,1.73Zm-3.63-2.1h0l-2.69-1.63c.06,1.18.25,2.32.38,3.41Zm-1.63,3h0l2.63,1.55L395,211.7Zm3.32,1.91h0l2.75,1.64c-.19-1.09-.31-2.23-.5-3.32Zm1.37,1.64h0l-1.87-1.18-1.57,1.18Zm-2.56-1.55h0l-2.56-1.5a22.31,22.31,0,0,0,.5,3.05Zm-1.69,2.41h0l3.07,1.82,2.31-1.82Zm3.75,2.19h0l2.57,1.5c-.13-1-.38-2.05-.5-3.1Zm2.57,2.27h0L394,218.75l-2.31,1.77.06,0Zm-3.82-2.23h0l-2.56-1.55a26.68,26.68,0,0,0,.69,3Zm-20.64,15h7l-2.94-1.82Zm7.13-4.09h0l-3.06,1.41-2.19-1.41Zm-2.31,1.91h0l4.06-1.91h.57l-.75,4.09h-.25Zm19.58.18h0l-2.94,2h7.69Zm-3.19-2.09h0l3.12,1.32,1.94-1.32Zm2.37,1.77h0l-4.38-1.77.94,4.09Zm-27,9.51H379l-3.88-2.78Zm10.89-6.33h0l-5.07,2.42-3.31-2.42Zm-4.07,3.1h0L381,235l-1.13,5.05Zm23,.36h0l-3.94,2.87h10.38ZM394,234.21h0l5.13,2.32,3.19-2.32Zm4.19,3h0L393,234.9l1.07,4.86.06.37Zm3.19,8h0l-4.13,2.95H408Zm-6-3.78h0l5.94,2.59L405,241.4Zm4.88,3.37h0l-5.57-2.46,1.19,5.5Zm-34.66,3.36h10.95l-4.25-2.95Zm12.7-6.73h0L372.39,244l-3.75-2.59Zm-4.88,3.37h0l6-2.6L378.15,248Zm24.77,12h0v1.41c.44.14.88.27,1.25.36Zm-.5,1.27h0v-2l-.81-1.13v2.91Zm-1.37-.32h0v-3.54l-.5-.73h-.32v4.05Zm-1.38-.36h0V253.5h-.75v3.77Zm-1.31-.18h0V253.5h-.82v3.55Zm-1.38-.23h0v-3.5h-.81v3.41Zm-1.31-.18h0V253.5h-.82v3.23Zm-1.32-.14h0V253.5h-.81v3.14Zm-1.31,0h0V253.5h-.81v3.09Zm-1.38-.05h0V253.5h-.81v3.09Zm-1.37,0h0V253.5h-.75v3.09Zm-1.32,0h0V253.5h-.81v3.14Zm-1.37.09h0V253.5H382v3.23Zm-1.32.1h0V253.5h-.81v3.32Zm-1.31.18h0V253.5h-.81v3.55Zm-1.31.13h0V253.5h-.82v3.77Zm-1.38.28h0V253.5H377l-.25.32v3.73Zm-1.37.27h0v-3l-.76,1.14v2.09Zm40.46,21.1h0l3.26-3-7-2.27Zm4.44-4h0l3.19-2.86H412.3Zm4.38-2h0l-2.75,2.55,5.94,1.86Zm-3.94,3.55h0l-3.81,3.5h12.76l-.56-.82Zm-10.75-5.78h0l3.62-1.86-6-1.55ZM415.8,268h0l3.38-1.68h-9.63Zm5.19-1.5h0l-3.69,1.87,6.13,1.59Zm-5.19,2.59h0L412,271h11.19Zm-7.44-3.63h10.57L412,263.6Zm-1.5-.37h0l3.62-1.82-6.06-1.59Zm5.13-2.59h0l3.56-1.77H405.17Zm5.06-1.41h0l-3.56,1.82,6,1.59Zm-13.88-1.18h13.07l-1.19-1.69H402Zm-47.16,19h0l-3.32-3.09,7.19-2.27Zm-4.51-4.09h0l-3.13-2.86h11.95Zm-4.25-1.95h0l2.62,2.5-5.69,1.82Zm3.81,3.5h0l3.88,3.5H342.31l.56-.86Zm9.95-4.41h0l.94-1.32-3.69-1.91,6.13-1.6L362,270.56ZM356.75,268h0l-3.31-1.68h9.63Zm-5-1.45h0l3.57,1.82-6,1.59Zm5,2.54h0l3.88,2H349.37Zm7.51-3.63H353.69l6.94-1.82Zm50.16-8.1H401.35l-2.69-3.82h13.08Zm-48.66,7.78h0l-3.69-1.87,6.26-1.59Zm-5.13-2.64h0l-3.56-1.77h10.32Zm-5.06-1.37h0l3.56,1.78-5.94,1.55Zm14-1.22H356.44l1.19-1.69h13.14Zm1.75-2.55H358.26L361,253.5h13.07ZM383,231.76h8.2l3.44,16.37H379.4l1.75-8.37Zm8-.87h-7.82l.37-1.63h7.07ZM374.83,258h0v-1.5l-1.37,1.91a8.8,8.8,0,0,1,1.37-.41Zm27.34,4.45h0l-.69-1a40.76,40.76,0,0,0-29.9-.41L371,262a40.48,40.48,0,0,1,31.22.45Z" transform="translate(-98.88 -88.88)"/><path class="cls-3" d="M271,244.22v3.23h.56V248h-.18c15.95,7.33,7,9.6,8.88,11-3.07,0-6.13,0-9.26,0h-9.38c1.19-1.59-8.07-3.68,8.44-11h-.19v-.59h.57v-3h-.38a1.71,1.71,0,0,1-1.56-.82,1.84,1.84,0,0,0,1.13.32c.93,0,1.75-.54,1.75-1.23a.86.86,0,0,0-.13-.4,1,1,0,0,1,.56.86,1.25,1.25,0,0,1-.81,1.09Zm-31.15,17.69c.19-.27-1.31-.59,1.44-1.82,2.63,1.23,1.19,1.6,1.5,1.82Zm-.12,2.1h3v-1.19h-3Zm.56-.28h.56v-.68h-.56Zm1.38,0h.5v-.68h-.5Zm-.69,0h.5v-.68H241Zm-1.63-1h3.82v-.23h-3.82Zm0-.41h3.82v-.23h-3.82Zm0,2.09h3.82v-.18h-3.82Zm0,.27h3.82v-.18h-3.82Zm.31.05h3.13v5.64h-3.13Zm3.13,6v4.87h-3.13v-4.87Zm0,5.23v3h3.69V265l6.19-.91v14.83h.25V261.64h.82v-.18H261v-1.59h19.52v1.32h0v.27H288v.18h.63v17.29H289V263.87l6,1.23v13.83h4.07v-3h3.06v3h5.57v-4.87h5v4.87h6.38v1.22H222.53v-1.22h6.56v-4.87h5.07v4.87h5.5v-3Zm-8.88-24.65c-.31-.41,2.13-.91-2.31-2.86-4.32,1.91-1.94,2.5-2.44,2.86Zm.13,3.41h-4.82v-1.91H234Zm-.88-.41h-.81v-1.09h.81Zm-2.25,0h-.82v-1.09h.82Zm1.12,0h-.81v-1.09H232Zm2.75-1.59h-6.25v-.5h6.25Zm0-.73h-6.25v-.45h6.25Zm0,3.32h-6.25v-.45h6.25Zm0,.46h-6.25v-.32h6.25ZM319.1,283H222.53v-2.46H319.1Zm-84.94-27.2h-5.07V265h5.07Zm73.75-4.55c.37-.41-2.13-.91,2.37-2.86,4.32,1.91,1.94,2.5,2.44,2.86Zm4.75,3.41v-1.91h.69v-.59h-6.26v.59h.69v1.91h-.69v1.14h.63V265h5v-9.14h.63v-1.14Zm-3.94-.41h.81v-1.09h-.81Zm2.19,0h.87v-1.09h-.87Zm-1.07,0h.82v-1.09h-.82Zm-2.75-2.18h6.26v-.59h-6.26Zm5.63,13.46v7.87h-5v-7.87Zm-50.54,13.38h17.2V262.41h-17.2Zm39.85-17c-.19-.27,1.31-.59-1.44-1.82-2.69,1.23-1.19,1.6-1.5,1.82Zm.12,2.1h-3v-1.19h3Zm-.63-.28H301v-.68h.5Zm-1.31,0h-.5v-.68h.5Zm.63,0h-.5v-.68h.5Zm1.68-1h-3.81v-.27h3.81Zm0-.45h-3.81v-.23h3.81Zm0,2.09h-3.81v-.23h3.81Zm0,.32h-.37v5.64h-3.06v-5.64h-.38v-.23h3.81Zm-3.43,6v4.87h3.06v-4.87Zm-70-5.14v7.87h5.07v-7.87Zm21.9,8.64v3.37l-3.19.05v-3.14c0-.59,1.5-1.55,1.56-1.55s1.63.68,1.63,1.27Zm0-5.64v3.33l-3.19.27v-3.32c0-.64,1.5-1.59,1.56-1.59s1.63.63,1.63,1.31Zm39.84,5.64v3.37l3.19.05v-3.14c0-.59-1.56-1.55-1.63-1.55s-1.56.68-1.56,1.27Zm0-5.64v3.33l3.19.27v-3.32c0-.64-1.56-1.59-1.63-1.59s-1.56.63-1.56,1.31Zm-9.38-7.36c.37-.5-2.63-1.1,2.87-3.51h-.25v-.18h.19v-.82h-.19a.65.65,0,0,1-.5-.27.82.82,0,0,0,.38.09c.31,0,.56-.18.56-.36a.15.15,0,0,0-.06-.14.28.28,0,0,1,.19.27.38.38,0,0,1-.19.32v.91h.12v.18h-.25c5.26,2.32,2.51,3.05,3,3.51Zm-9.07,8.09v2.6H276v-2.69c0-1.54-4.95-3.64-5.2-3.64s-5.19,2.1-5.19,3.64v2.69h3.57v-2.6c0-.45,1.5-1.09,1.62-1.09s1.57.64,1.57,1.09Zm0,5.78v2.55h-3.19v-2.55c0-.5,1.5-1.14,1.62-1.14s1.57.64,1.57,1.14Zm3.63-2.27H265.62v4.82h-1.5V263.78h13.32v13.83H276Zm-20.14-2.92h1.25v1.73h-1.25Zm0,6h1.25v1.73h-1.25Zm28.7,0h1.26v1.73h-1.26Zm0-6h1.26v1.73h-1.26Zm-29.83-7.32h1.13v1.23h-1.13Zm31.27,0h1.19v1.23H286Zm-1.87,0h1.12v1.23h-1.12Zm-1.94,0h1.12v1.23H282.2Zm-23.58,0h1.12v1.23h-1.12Zm-1.94,0h1.12v1.23h-1.12Zm26.21,10.1h1.75a9.62,9.62,0,0,0-.94.45c-.38.23-.88.64-.88,1v3.64h4.82v-3.64c0-.41-.56-.82-.94-1a5.22,5.22,0,0,0-.94-.45h1.88v-.36h-4.75Zm-28.78-6.19h2.13c-.37.14-1.06.55-1.25.64-.38.23-.94.64-.94,1v3.63h4.82v-3.63c0-.41-.57-.82-.94-1a5.71,5.71,0,0,0-1.25-.64h2.19v-.36h-4.76Zm0,6.19h1.82a5.22,5.22,0,0,0-.94.45c-.38.23-.94.64-.94,1v3.64h4.82v-3.64c0-.41-.5-.82-.94-1a4.55,4.55,0,0,0-.88-.45h1.82v-.36h-4.76Zm28.65-6.19H285a4.58,4.58,0,0,0-1.25.64c-.44.23-.94.64-.94,1v3.63h4.82v-3.63c0-.41-.56-.82-.94-1-.19-.09-.87-.5-1.25-.64h2v-.36h-4.69ZM257.49,256a.27.27,0,0,1,.19.27.36.36,0,0,1-.19.32v.91h.19v.18h-.56v-.18h.18v-.82h-.18a.76.76,0,0,1-.51-.27,1.1,1.1,0,0,0,.38.09c.31,0,.56-.18.56-.36a.15.15,0,0,0-.06-.14Zm-.12,1.68c5.25,2.32,2.56,3.05,3,3.51h-5.88c.44-.5-2.63-1.1,2.88-3.51Z" transform="translate(-98.88 -88.88)"/><path class="cls-3" d="M340.24,211.88h-1.12v-5.82l-.13.09-.19-.09v1.86l-.25-.22-.25.32-.25.31-.31-.31-.25-.32-.31.32-.25.31-.31-.31-.26-.32-.31.32-.25.31-.25-.31-.31-.32L335,208l-.31.31-.25-.31-.32-.32-.25.32-.25.31-.31-.31-.25-.32-.31.32-.25.31-.32-.31-.25-.32-.31.32-.25.31-.25-.31-.31-.32-.25.32-.32.31L330,208l-.31-.32-.25.32-.25.31-.31-.31-.25-.32-.32.32-.24.31-.32-.31-.25-.32-.31.32-.25.31-.25-.31-.31-.32-.25.32-.32.31-.25-.31-.31-.32L325,208l-.25.31-.31-.31-.25-.32-.32.32-.25.31-.31-.31-.25-.32-.31.32-.25.31-.25-.31-.31-.32-.26.32-.31.31-.25-.31-.31-.32-.25.32-.25.31L320,208l-.25-.32-.26.27v-1.91l-.18.09-.19-.09v5.82H318v-2.27l-.13.13-.18-.13v18.87h22.82V209.61l-.18.13-.13-.13Zm.69,71.14H316.72V272.51h24.21Zm-2.38-11.33v-9.82h-1v9.82h-.75v-9.82h-1.06v9.82H335v-9.82h-1v9.82h-.82v-9.82h-1v9.82h-.81v-9.82h-1v9.82h-.81v-9.82h-1v9.82h-.82v-9.82h-1v9.82H326v-9.82h-1.06v9.82h-.75v-9.82h-1v9.82h-.82v-9.82h-1v9.82h-.81v-9.82h-1v9.82h-.81V251.36h20.64v20.33Zm-1-10.37h1v-9.5h-1Zm-18,0h1v-9.5h-1Zm1.81,0h1v-9.5h-1Zm1.82,0h1v-9.5h-1Zm1.75,0H326v-9.5h-1.06Zm1.81,0h1v-9.5h-1Zm1.82,0h1v-9.5h-1Zm1.81,0h1v-9.5h-1Zm1.81,0h1v-9.5h-1Zm1.82,0h1v-9.5h-1Zm1.75,0h1.06v-9.5h-1.06ZM320,205.56l-.75-.46-.69.46.69.55Zm19.64,0-.69-.46-.69.46.69.55Zm1.38,3.55-.69-.46-.63.46.63.54Zm-22.52,0-.63-.46-.68.46.68.54Zm.56-4v-.32h.37v.32l-.18-.14Zm19.7,0v-.32h.32v.32L339,205Zm-21.07,3.55v-.37H318v.32l-.13-.09Zm22.51,0v-.32h.31v.37l-.18-.14Zm-16-6.14-3,5.41.06.05.06.09.57-.59.43.5.13.09.12-.09.44-.5.56.64.13-.14.44-.54.37.54.19.14.5-.64.5.5.06.09.13-.09.44-.5.44.5.12.09.13-.09.43-.5.44.5.13.14.12-.14.44-.54.37.54.19.14.06-.14.44-.5.5.5.06.09.57-.59.44.5.12.09.13-.09.43-.5.57.64.12-.14.44-.54.44.54.12.14.5-.64.5.5.07.09.56-.59.44.5.12.09.13-.09.43-.5.57.59L337,208l.06-.05-3-5.41Zm1,3.69-.62-.78-.19-.18-.82,1,.25.09.57-.68.5.68Zm4.69-1.82-.62-.82-.13-.18-.81,1,.25.09.56-.69.5.69Zm3.13,0-.69-.82-.12-.18-.82,1,.25.09.57-.69.5.69Zm1.56,1.82-.68-.78-.13-.18-.75,1,.19.09.56-.68.56.68Zm-3.19,0-.56-.78-.19-.18-.81,1,.25.09.56-.68.57.68Zm-3.13,0-.56-.78-.18-.18-.82,1,.25.09.57-.68.5.68Zm-1.18-1.82-.57-.82-.18-.18-.82,1,.25.09.57-.69.5.69Zm-4.82,4.77H320v2.23h2.25Zm15.64,0h-2.19v2.23h2.19Zm-3.07,0h-2.31v2.23h2.31Zm-3.12,0h-2.32v2.23h2.32Zm-3.13,0h-2.32v2.23h2.32Zm-3.19,0h-2.25v2.23h2.25Zm4.63-20.42h-1.82v-.95h1.82Zm-5.88,7.32-.69-.5-.69.5.69.5Zm11.32,0-.69-.5-.69.5.69.5Zm-1.06,2-.25.36-.25.37h-.07l-.18-.37-.32-.36-.31.36-.19.37h0l-.25-.37-.31-.36-.25.36-.25.37h0l-.25-.37-.25-.36-.32.36-.25.37h0l-.25-.37-.25-.36-.31.36-.19.37h-.06l-.25-.37-.25-.36-.31.36-.19.37h-.06l-.25-.37-.25-.36-.31.36-.19.37h-.06l-.26-.37-.24-.36-.32.36-.19.37h-.06l-.25-.37-.31-.36-.25.36-.25.37h0l-.19-.37-.31-.36-.31.36-.19.37h-.06l-.19-.37-.32-.36-.18.23v-1.6l-.19.1-.19-.1v2.1h0v3.5H335v-3.5h0v-2.1l-.19.1-.19-.1v1.6Zm-5.26-10.78c0,.14-.06.27-.06.41h.06v-.41Zm-.25,1.64c-.69,3.14-2.69,5.91-4.06,8.87v-.05l.5.64.06.09.5-.73.5.64.06.09.06-.09.51-.64.5.73.06-.09.5-.64.5.73.06-.09.5-.64.44.64.06.09.06-.09.5-.64.5.73.07-.09.5-.64.5.73.06-.09.5-.64.38.64.12.09.06-.09.44-.64c.13-.13-3.81-7.55-4.06-8.82Zm1,4.27-.62-.72-.13-.23-.81.95.25.14.56-.68.5.68Zm-2.37,3.92-.57-.82-.18-.19-.82,1,.25.09.57-.73.49.73Zm2.37,0-.62-.82-.13-.19-.81,1,.25.09.56-.73.5.73Zm2.38,0-.63-.82-.18-.19-.82,1,.31.09.51-.73.56.73Zm-3.75-1.87-.63-.82-.19-.18-.75,1,.25.09.5-.73.56.73Zm2.75,0-.63-.82-.12-.18-.82,1,.19.09.63-.73.5.73Zm-8,.32v-.32h.38v.32l-.19-.14Zm11.32,0v-.32H335v.32l-.19-.14Zm-8.94,3.91h-1.75v2.27h1.75Zm8.69,0h-1.75v2.27h1.75Zm-2.19,0h-1.75v2.27h1.75Zm-2.12,0h-1.76v2.27h1.76Zm-2.19,0h-1.75v2.27h1.75Zm9.82,50.81h1V239.86h-1Zm-18.08,0h1V239.86h-1Zm1.81,0h1V239.86h-1Zm1.82,0h1V239.86h-1Zm1.81,0h1V239.86h-1Zm1.82,0h1V239.86h-1Zm1.75,0h1.06V239.86h-1.06Zm1.81,0h1V239.86h-1Zm1.82,0h1V239.86h-1Zm1.81,0h1V239.86h-1Zm1.81,0h1V239.86h-1Zm1.82-10.92h1v-9.55h-1Zm-18.08,0h1v-9.55h-1Zm1.81,0h1v-9.55h-1Zm1.82,0h1v-9.55h-1Zm1.81,0h1v-9.55h-1Zm1.82,0h1v-9.55h-1Zm1.75,0h1.06v-9.55h-1.06Zm1.81,0h1v-9.55h-1Zm1.82,0h1v-9.55h-1Zm1.81,0h1v-9.55h-1Zm1.81,0h1v-9.55h-1Zm3.57-10H318.85v21.28h20.58Zm-17.95-2.28h-1.19v.87h1.19Zm16.45,0h-1.19v.87h1.19Zm-1.5,0h-1.19v.87h1.19Zm-1.5,0h-1.19v.87h1.19Zm-1.51,0h-1.18v.87h1.18Zm-1.5,0h-1.19v.87h1.19Zm-1.5,0h-1.19v.87h1.19Zm-1.5,0h-1.19v.87h1.19Zm-1.5,0h-1.19v.87h1.19Zm-1.5,0h-1.13v.87h1.13Zm-1.44,0h-1.19v.87h1.19Zm-1.5,0h-1.19v.87H323Zm6.19-6.37c-.12,0-.25,0-.37,0l-.44.32c-.07.18-.07.32-.19.41a.41.41,0,0,1-.31,0,1.4,1.4,0,0,0-.31-.27c-.13-.05-.13-.14,0-.23a.87.87,0,0,1,.5-.14l.5-.32c-.13,0-.13-.18-.13-.27V220l-4.5-3.5v-.09H324a0,0,0,0,1,.06,0l4.76,3.23a.69.69,0,0,1,.31,0,1.38,1.38,0,0,1,.44.09l.75-.5c-.06,0-.13-.05-.13-.1a.11.11,0,0,1,0-.22,1.58,1.58,0,0,1,.75-.14l.13-.09v-.23h.44v.27h-.25l-.19.14c0,.23,0,.46-.13.55a.58.58,0,0,1-.37,0l-.06,0-.75.55a.54.54,0,0,1,.12.27c0,.09-.06.14-.06.18a1.81,1.81,0,0,0,.94.5s.06,0,.06,0,0,.09-.06.09-.13,0-.13.09-.06.05-.06.09-.06.09-.06.09-.19,0-.19.05-.13,0-.13.09h-.06c-.06,0-.06,0-.12,0a1.38,1.38,0,0,0-.75-.69Zm-.19-5.27h-.43l-.07-.59h.5Zm-.81,0c-.19.05-.37.05-.56.1l-.19-.59h0a2.79,2.79,0,0,1,.69-.1h0Zm-.88.14a1,1,0,0,1-.43.09l-.32-.54.57-.14h0Zm-.68.18a2.54,2.54,0,0,1-.57.19l-.43-.51a2.47,2.47,0,0,1,.68-.22Zm-.88.32a1.26,1.26,0,0,1-.37.18l-.5-.5a2.39,2.39,0,0,0,.5-.22Zm-.62.32a1,1,0,0,1-.32.18l.13.09.25-.18h.06l.06,0c.19-.09.32-.19.5-.28h.07l1.31,1.69a1.6,1.6,0,0,0-.31.13l.12.09a4.06,4.06,0,0,1,2.19-.54,4.49,4.49,0,0,1,2.38.68h.25a2.41,2.41,0,0,0-.63-.36l1.25-1.69h.07l.68.37.07,0h0a2.42,2.42,0,0,0,.44.27,2.68,2.68,0,0,0,.5.41v.05l.06,0a1.69,1.69,0,0,1,.31.37l-2.25.95-.44-.45v.23a2.28,2.28,0,0,1,.88,1.68,2.44,2.44,0,0,1-1.07,1.86,4.49,4.49,0,0,1-5.06,0,2.28,2.28,0,0,1-1.07-1.86,2,2,0,0,1,.75-1.55l-.12-.09c-.06,0-.13.14-.19.18l-2.25-.95a2,2,0,0,1,.5-.5v-.05h0c.06,0,.06,0,.13-.09l-.13-.09c-.06,0-.06.09-.13.14l-.68-.41a.52.52,0,0,0,.25-.18v-.23l.18-.05c.07-.09.19-.09.32-.09a2.56,2.56,0,0,1,.44-.22h0Zm-1.07.82H324l-.56-.37h0l.62.32Zm-.12.09a1.1,1.1,0,0,0-.32.36l-.37-.18-.38-.14h0a3.68,3.68,0,0,1,.38-.4h.06Zm-.5.55a1.5,1.5,0,0,0-.19.31l-.81-.27c.06-.09.18-.23.25-.32h0Zm-.38.54c-.06.14-.12.27-.19.41l-.75-.18H322c.06-.18.19-.32.25-.5h0Zm-.19.5h0l-.75-.13h0Zm-.06.14a2.2,2.2,0,0,0-.12.32l-.82-.09c.07-.14.07-.28.13-.41v0Zm-.12.41h0l-.75,0h0v0Zm0,.14a.81.81,0,0,0-.07.4h-.81a1.46,1.46,0,0,1,.06-.5Zm-.07.68a.51.51,0,0,0,.07.31l-.88,0h0v-.36Zm.07.54c.06.14.06.32.12.46l-.81.13h0a1.48,1.48,0,0,1-.13-.5h0Zm.18.55h0l-.75.13h0Zm0,.13.19.28-.81.22v0c-.06-.14-.13-.27-.19-.41h.06Zm.25.41h0l-.68.23h0v0Zm.07.09a1.19,1.19,0,0,0,.25.41l-.75.32h0c-.13-.13-.19-.32-.32-.45l.07-.05Zm.43.64a.62.62,0,0,0,.25.23l-.75.36h0a2.39,2.39,0,0,1-.25-.32h0Zm.44.41c.13.14.25.23.38.37l-.57.45h-.06c-.12-.14-.31-.27-.44-.41h0Zm.63.55c.12,0,.19.13.31.18l-.5.5h-.06L324,224h0Zm.56.36.5.23-.37.54h-.07a4.53,4.53,0,0,1-.56-.31h0Zm.81.37.38.13-.31.55a1.54,1.54,0,0,1-.5-.18h0Zm.69.22.56.14-.18.59h0c-.25-.05-.5-.09-.69-.14Zm.69.18h0l-.13.5h-.06Zm.19.05c.12,0,.31,0,.44,0l-.13.59h0c-.19,0-.37-.05-.5-.05h0Zm.56.09h.06l-.12.5h0Zm.19,0c.19,0,.44.05.62.05v.59a3.78,3.78,0,0,1-.75-.05h0Zm.94.05a1.27,1.27,0,0,0,.43-.05l.13.59v.05h-.56Zm.81-.05c.19,0,.37,0,.56-.09l.19.59h0c-.19.05-.44.05-.69.09h0Zm.75-.14h0l.19.5H331l-.12-.5Zm.12,0a2.29,2.29,0,0,0,.44-.09l.32.54v.05a2.29,2.29,0,0,1-.5.09h0Zm.57-.14h.06l.25.5h0Zm.19,0c.18-.05.37-.14.5-.18l.43.5v0a4.29,4.29,0,0,0-.62.23v-.05Zm.81-.32a1.57,1.57,0,0,0,.37-.18l.5.5c-.12.09-.31.13-.43.22h0Zm.5-.23h0l.44.41h0Zm.12-.09a2.42,2.42,0,0,0,.44-.27l.63.41h0a5.23,5.23,0,0,1-.56.36h0Zm.69-.45c.13-.1.19-.19.25-.23l.69.36a1.43,1.43,0,0,1-.31.27Zm.5-.46a1.1,1.1,0,0,0,.32-.36l.75.31a3.72,3.72,0,0,1-.38.46H335Zm.5-.55.19-.27.81.23a1.56,1.56,0,0,0-.25.36h-.06Zm.32-.5c.06-.13.18-.27.18-.41l.82.14h.06a2.32,2.32,0,0,0-.25.5Zm.31-.63c0-.09.06-.23.06-.32l.88.09c-.07.09-.07.23-.13.36h0Zm.12-.46h0l.75.09h-.06Zm0-.14a.81.81,0,0,0,.07-.4h.81a1.46,1.46,0,0,1-.06.5Zm.07-.68a.39.39,0,0,0-.07-.27l.88-.09h0V220Zm-.07-.4h0v-.05l.75,0h0v0Zm0-.14c-.06-.14-.06-.27-.12-.41l.81-.14v0a1.77,1.77,0,0,1,.13.54h0Zm-.18-.64a2.7,2.7,0,0,0-.19-.32l.81-.22h0a.83.83,0,0,1,.13.36h0Zm-.25-.45h0l.68-.23h0v0Zm-.07-.09a1.19,1.19,0,0,0-.25-.41l.69-.28h.06c.13.14.19.32.32.46Zm-.43-.6-.19-.27.62-.36a1.58,1.58,0,0,1,.32.31Zm-.44-.5a2.15,2.15,0,0,1-.38-.32l.63-.4a2.89,2.89,0,0,0,.44.36v0Zm-.63-.45a.74.74,0,0,0-.31-.23l.5-.5c.13.09.31.18.44.27Zm-.44-.32h0l.51-.41h0l-.44.41Zm-.12,0c-.19-.1-.31-.19-.5-.28l.44-.5.56.28Zm-.81-.37a1.64,1.64,0,0,0-.38-.18l.31-.55h0a2.3,2.3,0,0,1,.5.18Zm-.69-.27-.57-.14.26-.59h0c.18,0,.43.14.62.18h0Zm-.88-.18c-.12,0-.31,0-.44-.1l.13-.59c.19.05.37.05.5.1h0Zm-.56-.1h-.06l.12-.54h0Zm-.19,0a3.28,3.28,0,0,0-.62,0v-.59h.75Zm-3.81.64c.18-.09.31-.13.5-.22h.06l.19,0h0l.5-.14h.06l.13,0h.12c.19,0,.38,0,.56-.09h.32v0H329v1.91a5.6,5.6,0,0,0-1.56.32Zm3.19-.59a2.16,2.16,0,0,1,.56,0h.31a3.06,3.06,0,0,1,.44.09h.06l.19,0h.06l.57.14v0h.06c.06,0,.12,0,.19,0h0l.06,0h0a1.36,1.36,0,0,1,.37.13l-1.31,1.64a6.09,6.09,0,0,0-1.56-.32Zm5.44,2.46a1.37,1.37,0,0,1,.25.41h0l.06,0s0,.09.06.09v0h0a3.51,3.51,0,0,1,.19.5h0a2.58,2.58,0,0,1,.19,1h-2.63a2.44,2.44,0,0,0-.37-1.14Zm.75,2.32a.93.93,0,0,1-.06.4h0a1.77,1.77,0,0,1-.13.55h0a4,4,0,0,1-.56,1.14l-2.32-1a2.59,2.59,0,0,0,.44-1.13Zm-.94,2.27a1.84,1.84,0,0,1-.31.41l-.13.09-.06.05h0c-.12.09-.19.18-.25.22l-.12,0-.07.09h0l-.12.05h.06a2.82,2.82,0,0,0-.44.27h-.06v0l-.06,0-.5.23-1.32-1.69a4,4,0,0,0,.63-.36,2.17,2.17,0,0,0,.5-.45l2.25.95Zm-2.38,1.68a3.81,3.81,0,0,1-.5.19v-.05l-.12.05-.06,0-.13.05h0a1.1,1.1,0,0,0-.38.09h-.06l-.25,0h-.06a3.26,3.26,0,0,1-.69.09h-.12a1.73,1.73,0,0,1-.5.05v-1.91a6.09,6.09,0,0,0,1.56-.32Zm-3.19.55a2.16,2.16,0,0,1-.56-.05h-.31a3.06,3.06,0,0,1-.44-.09h0a6.7,6.7,0,0,1-.94-.22h-.06c-.19-.05-.38-.14-.56-.19l1.31-1.68a6.09,6.09,0,0,0,1.56.32Zm-3.19-.68-.5-.23h.07l-.07,0-.18,0v-.05H325c-.06-.09-.18-.13-.31-.22h.06l-.06-.05-.12-.09-.13,0a3.25,3.25,0,0,1-.38-.31h0l-.12-.14-.06,0-.19-.27h-.06l2.31-.95a2.51,2.51,0,0,0,.56.45,5.75,5.75,0,0,0,.63.41l-1.38,1.64Zm-2.25-1.73a1.21,1.21,0,0,1-.25-.46h-.06c-.06-.13-.13-.31-.19-.45h0a.33.33,0,0,1-.06-.23h0a2.51,2.51,0,0,1-.19-.95h2.63a2,2,0,0,0,.44,1.13Zm-.75-2.32a1.14,1.14,0,0,1,.06-.45h0v-.23h0c.07-.09.07-.23.13-.32h0c0-.09,0-.14.06-.18v0h0a2.36,2.36,0,0,1,.19-.36h0l.06-.09v0s.06,0,.06-.09h0l.19-.27,2.32,1a2.05,2.05,0,0,0-.44,1.14Zm14.83-6.1h-8.45c4.63,0,8.45,2.78,8.45,6.19ZM331,215h.07l-.19.55Zm3.26,1.41h.06l-.5.41-.06-.05Zm1.94,2.37h0l-.75.13Zm0,2.72h0l-.75-.13h0Zm-1.88,2.37h0l-.06,0-.5-.4h.06Zm-10.26,0h0l-.06,0,.5-.36h.06Zm3.19-8.91h.06l.13.55Zm4.82.27h0l-.31.5ZM335,217h0l-.63.36v-.05Zm.87,5.27h0l-.75-.23h0Zm-1,1.19h0l-.62-.32Zm-4.88,2h0l-.06-.55Zm-3.69-.37h0l-.06,0,.31-.5Zm-1.68-.72h0v0l.5-.41Zm-1.32-1h0l.63-.31Zm-1.37-2.54h0l.75-.05Zm.5-2.73h0l.68.23Zm2.37-2.14h0v0l.44.45v0Zm1.63-.68h0l.31.5-.06,0Zm1.87-.32h0l.07.54Zm.88-1h-8.51v6.19c0-3.41,3.82-6.19,8.51-6.19Zm-8.51,6.19v6.19h8.51c-4.69,0-8.51-2.78-8.51-6.19Zm8.51,6.19h8.45v-6.19c0,3.41-3.82,6.19-8.45,6.19Zm0-.32c-4.44,0-8.07-2.64-8.07-5.87s3.63-5.82,8.07-5.82,8,2.64,8,5.82-3.63,5.87-8,5.87Zm7.13-.37c-.37,0-.62-.18-.62-.5s.25-.41.62-.41.63.19.63.41-.31.5-.63.5Zm0-10.19c-.37,0-.62-.22-.62-.45s.25-.45.62-.45.63.18.63.45-.31.45-.63.45Zm-14.2,0c-.37,0-.62-.22-.62-.45s.25-.45.62-.45.63.18.63.45-.25.45-.63.45Zm0,10.19c-.37,0-.62-.18-.62-.5s.25-.41.62-.41.63.19.63.41-.25.5-.63.5Zm15.76-11.87v12.74H320.41V213.79Zm.07-1.36h-1.19v.91h1.19Zm-16.45,0h-1.19v.91h1.19Zm1.5,0h-1.19v.91H323Zm1.5,0h-1.19v.91h1.19Zm1.44,0h-1.13v.91h1.13Zm1.5,0h-1.19v.91h1.19Zm1.5,0h-1.19v.91h1.19Zm1.5,0h-1.19v.91h1.19Zm1.5,0h-1.19v.91h1.19Zm1.5,0h-1.18v.91h1.18Zm1.51,0h-1.19v.91h1.19Zm1.5,0h-1.19v.91h1.19ZM319.6,227.85h.25V212.43h-.25Zm-1.25,0h.31V212.43h-.31Zm.63,0h.31V212.43H319Zm19.45,0h.37V212.43h-.37Zm1.25,0H340V212.43h-.31Zm-.63,0h.32V212.43h-.32Z" transform="translate(-98.88 -88.88)"/><path class="cls-3" d="M570.86,226.48v-.64l-2.57-.9v3.13Zm-56.48-16.92h18.7v4h-18.7Zm18.7,4.6v6.05h-18.7v-6.05Zm0,7V232h-18.7V221.16Zm-14-10.37h3.19v.5h-3.19Zm11,5.32v2.78h-3v-2.78c0-.5.76-.91,1.51-.91s1.5.41,1.5.91Zm-4.76,0v2.78h-3v-2.78c0-.5.63-.91,1.5-.91s1.5.41,1.5.91Zm-4.81,0v2.78h-3v-2.78c0-.5.63-.91,1.51-.91s1.5.41,1.5.91Zm4.69,8.1h3.19v.45H525.2Zm-3.94.09h3.19v.45h-3.19Zm2.25.59h3.19v.5h-3.19Zm1.88.86h3.19v.51h-3.19Zm-3.76,0h3.19v.51h-3.19Zm-2.44,4.64h3.13v.5h-3.13Zm-1.56-.59h3.19v.5h-3.19Zm-1.56-.63h3.19v.45h-3.19ZM528.2,229h3.19v.5H528.2Zm-1.81-18.79h3.19v.51h-3.19Zm-5,1.69h3.19v.5h-3.19Zm-31.46,33h31.65v18H489.92Zm31.65,18.78V283H489.92V263.73ZM513.19,278h5.38v.82h-5.38Zm-5.07-8.23h5.38v.82h-5.38Zm-6.57.18h5.38v.82h-5.38Zm3.76,1.05h5.38v.81h-5.38Zm3.12,1.45h5.39v.82h-5.39Zm-6.31,0h5.31v.82h-5.31Zm-4.26,7.87h5.38v.82h-5.38Zm-2.56-1.05h5.38v.82H495.3Zm-2.56-1.09h5.37V279h-5.37Zm7.38-22.06v4.69h-5.07v-4.69c0-.86,1.13-1.59,2.57-1.59s2.5.73,2.5,1.59Zm16.38,0v4.69h-5.06v-4.69c0-.86,1.06-1.59,2.5-1.59s2.56.73,2.56,1.59Zm-8.19,0v4.69h-5.07v-4.69c0-.86,1.13-1.59,2.51-1.59s2.56.73,2.56,1.59Zm-10.51-9h5.38v.81H497.8Zm12.39-1h5.37V247h-5.37ZM501.62,249H507v.87h-5.38Zm-11.7,2.18h31.65V252H489.92Zm33.9-50.94L517.57,204h12.88Zm5.38,4v5.09H518.88v-5.09Zm-6.32,2H525V204.6h-2.13Zm54.67,16.46L568.73,228H587Zm7.44,5.78v7.23h5.57V267H564.35V235.58h6.32v-7.23Zm-8.75,2.45h2.94v-2.13h-2.94Zm-5.32,6.55h4.44V238h-4.44Zm15.45,7.46v3.82h-4.19v-3.82c0-.73.87-1.32,2.06-1.32s2.13.59,2.13,1.32Zm-6.75,0v3.82h-4.2v-3.82c0-.73.94-1.32,2.07-1.32s2.13.59,2.13,1.32Zm-6.76,0v3.82h-4.19v-3.82c0-.73.94-1.32,2.06-1.32s2.13.59,2.13,1.32Zm6.57,11.24h4.44v.68h-4.44Zm-5.45.13h4.45v.69H574Zm3.13.87h4.51v.72h-4.51Zm2.63,1.23h4.44V259h-4.44Zm-5.32,0h4.51V259h-4.51Zm-3.44,6.5h4.44v.68H571Zm-2.12-.86h4.44v.68h-4.44Zm-2.13-.87h4.44v.68h-4.44Zm16.95-.18h4.44v.64h-4.44Zm-2.56-26.29h4.44v.64h-4.44Zm-7,2.32h4.44v.68h-4.44Zm-9.76,1.77h26.21v.91H564.35Zm0,9.83h26.21v1.91H564.35Zm-58.54-21.29-10.7,6.51h22.14Zm9.07,6.87v8.23H497.49v-8.23Zm-10.63,3.09h3.56v-2.59h-3.56Zm18.13,18.47.88-.32v4.87l1.44-.46v-4.86l3-1.05v4.87l1.38-.5v-4.87l3-1v4.87l1.44-.5v-4.87l3-1v4.86l1.38-.5v-4.86l3-1v4.87l1.44-.46v-4.91l3-1.05v4.87l1.38-.45v-4.87l3-1.09V253l1.44-.45v-4.87l2.94-1v4.86l1.43-.5v-4.86l3-1.05v4.87l1.37-.5v-4.87l3-1v4.87l.62-.18v16.37l-41.16,14.38Zm45.91-29.57v1l-1.18-.4v-4.19l-2.63-.91v4.23l-1.19-.45v-4.19l-2.56-.91v4.23l-1.26-.45v-4.19l-2.5-.91v4.23l-1.25-.45v-4.19l-2.56-.86v4.14l-1.19-.41v-4.18l-2.63-.91v4.18l-1.19-.41v-4.18l-2.56-.91v4.18l-1.19-.41v-4.18l-2.63-.91v4.18l-1.19-.41v-4.18l-2.56-.91v4.18l-1.25-.41v-4.18l-2.5-.91v4.18l-.32-.09v14.1l29.59,10.33V235h6.63v-6.92Z" transform="translate(-98.88 -88.88)"/><path class="cls-3" d="M229.41,208.65l-1,6.82-33.22-2.63,1-6.82ZM203,270.92c17.32,0,32.27,5,38.34,12.1H164.48c6.19-7.1,21.08-12.1,38.47-12.1ZM188.19,252.5l35.27,2.82-.18,1.55-35.34-2.82Zm13.63-57.26,25.4,2,.18-1.37-25.39-2Zm-6.31,8.45,35.34,2.78-.26,1.59-35.27-2.82Zm-1.44,9.74,35.27,2.82-.18,1.59L193.82,215Zm-1.44,9.78L227.91,226l-.25,1.54-35.28-2.77Zm-1.5,9.73,35.34,2.82-.32,1.59-35.27-2.82Zm-1.44,9.78L225,245.54l-.26,1.59-35.27-2.82Zm34.21-37.25,1.19-7.82L203.76,196l-1.19,7.82Zm-14.51-5.64L209,202.6l-3.69-.27.38-2.77a1.85,1.85,0,0,1,2.06-1.28c1,.09,1.76.78,1.63,1.55Zm12.7,1-.44,2.77-3.69-.32.44-2.77a1.81,1.81,0,0,1,2.06-1.23c1,0,1.75.73,1.63,1.55Zm-6.32-.51-.44,2.78-3.69-.32.44-2.77a1.7,1.7,0,0,1,2.06-1.23,1.53,1.53,0,0,1,1.63,1.54Zm-16.14,7.28-.68,4.5-2.19-.18.68-4.5c.07-.36.57-.64,1.19-.59s1.07.36,1,.77Zm21.46,41.62h0l-.75,4.5-2.13-.18.69-4.5c.06-.37.56-.64,1.19-.59s1,.41,1,.77ZM218,249h0l-.69,4.55-2.18-.19.68-4.5c.07-.36.57-.64,1.19-.59s1.07.41,1,.73Zm-3.06-.19h0l-.69,4.46-2.13-.13.63-4.55c.06-.37.62-.59,1.25-.55s1,.37.94.77Zm-3-.27h0l-.69,4.5-2.19-.18.69-4.5c.06-.36.56-.59,1.18-.59s1.07.41,1,.77Zm-3.07-.27h0l-.69,4.55-2.12-.19.62-4.5c.06-.36.63-.63,1.19-.59s1.06.41,1,.73Zm-3-.18h0l-.69,4.45-2.19-.13.63-4.55c.06-.36.62-.59,1.25-.55s1.06.37,1,.78Zm-3.07-.28h0l-.68,4.51-2.19-.18.68-4.46c.07-.41.63-.64,1.19-.64s1.07.41,1,.77Zm-3.06-.22h0l-.63,4.5-2.25-.18.69-4.51c.06-.36.62-.63,1.25-.59s1,.41.94.78Zm-3-.23h0l-.69,4.5-2.19-.18.69-4.5c.06-.37.62-.64,1.19-.59s1.06.36,1,.77Zm-3.07-.27h0l-.62,4.5-2.26-.18.69-4.46c.06-.41.57-.64,1.19-.64s1.06.41,1,.78Zm28.84-7.69h0l-.63,4.5-2.25-.18.69-4.5c.06-.37.56-.59,1.18-.59s1.07.41,1,.77Zm-3-.23h0l-.75,4.5-2.12-.18.68-4.5c.07-.36.57-.64,1.19-.59s1,.41,1,.77Zm-3.06-.23h0l-.69,4.51-2.19-.18.69-4.55c.06-.32.56-.59,1.19-.55s1.06.37,1,.77Zm-3-.27h0l-.75,4.5-2.13-.13.62-4.5c.13-.41.63-.64,1.26-.64s1,.41,1,.77Zm-3.07-.23h0L209.7,243l-2.19-.19.69-4.5c.07-.36.57-.63,1.19-.59s1.06.41,1,.77Zm-3.06-.22h0l-.69,4.5-2.13-.18.63-4.55c.06-.32.62-.59,1.19-.55s1.06.37,1,.78Zm-3-.27h0l-.68,4.5-2.19-.14.69-4.5c0-.41.56-.64,1.18-.64s1.07.41,1,.78Zm-3.06-.23h0l-.69,4.5-2.13-.18.63-4.51c.06-.36.63-.63,1.19-.54s1.06.36,1,.73Zm-3.07-.23h0l-.62,4.5-2.25-.18.69-4.55c.06-.32.62-.59,1.25-.54s1.06.36.93.77Zm-3-.27h0l-.69,4.5-2.19-.14.69-4.5c.07-.41.63-.64,1.19-.64s1.07.41,1,.78ZM224,229.53h0l-.69,4.5-2.19-.13.69-4.55c.06-.37.56-.59,1.19-.55s1.06.37,1,.73ZM221,229.3h0l-.62,4.51-2.25-.19.68-4.5c.07-.36.63-.64,1.19-.59s1.06.41,1,.77Zm-3-.23h0l-.69,4.51-2.19-.18.69-4.51c.06-.36.56-.63,1.19-.59s1,.37,1,.77Zm-3.07-.27h0l-.68,4.51-2.19-.14.69-4.5c.06-.41.56-.64,1.18-.6s1.07.37,1,.73Zm-3-.23h0l-.75,4.51L209,232.9l.63-4.51a1.2,1.2,0,0,1,1.25-.59c.56,0,1,.41,1,.77Zm-3.06-.22h0l-.69,4.5-2.19-.18.69-4.5c.06-.37.56-.64,1.19-.6s1.06.41,1,.78Zm-3.07-.23h0l-.68,4.46-2.13-.14.62-4.5c.07-.41.63-.64,1.26-.59s1,.36.93.77Zm-3-.27h0l-.69,4.5-2.19-.18.69-4.5c0-.37.56-.64,1.19-.55s1.06.36,1,.73Zm-3.06-.23h0l-.69,4.5-2.13-.18.63-4.5c.06-.37.62-.64,1.19-.59s1.06.41,1,.77Zm-3-.23h0l-.68,4.46-2.26-.14.69-4.5c.06-.41.63-.64,1.25-.59s1.07.36,1,.77Zm28.78-7.68h0l-.63,4.45-2.19-.13.69-4.55c0-.37.56-.59,1.13-.55s1.12.37,1,.78Zm-3-.28h0l-.68,4.5-2.19-.18.68-4.45c.07-.41.57-.64,1.19-.64s1.07.41,1,.77Zm-3.06-.27h0l-.63,4.55-2.25-.18.75-4.51c0-.36.56-.63,1.13-.54s1.06.36,1,.68Zm-3-.18h0l-.69,4.5-2.19-.18.69-4.55c.06-.32.56-.59,1.19-.55s1,.37,1,.78Zm-3.07-.28h0l-.69,4.51-2.19-.18.69-4.46c.06-.41.57-.64,1.19-.64s1.06.41,1,.77Zm-3-.22h0l-.75,4.5-2.13-.18.63-4.5a1.09,1.09,0,0,1,1.25-.55c.56,0,1,.36,1,.73Zm-3.07-.23h0l-.68,4.5-2.19-.18.69-4.5c.06-.37.56-.64,1.18-.59s1.07.36,1,.77ZM204.2,218h0l-.69,4.5-2.12-.18.62-4.46c.13-.41.63-.64,1.25-.64s1,.41.94.78Zm-3-.23h0l-.69,4.5-2.19-.18.69-4.5c.06-.37.56-.64,1.19-.55s1.06.36,1,.73Zm-3.07-.23h0l-.69,4.5-2.12-.18.62-4.5c.07-.36.63-.64,1.19-.59s1.06.36,1,.77ZM227,209.84h0l-.69,4.5-2.19-.18.69-4.55c.06-.32.62-.59,1.25-.55s1,.37.94.78Zm-3.07-.28h0l-.62,4.51-2.19-.14.69-4.5c0-.41.56-.64,1.12-.64s1.13.41,1,.77Zm-3-.22h0l-.69,4.5-2.19-.18.69-4.51c.06-.36.56-.63,1.19-.54s1.06.36,1,.73Zm-3.07-.23h0l-.62,4.5-2.25-.18.75-4.51c0-.36.56-.63,1.12-.59s1.13.37,1,.78Zm-3-.28h0l-.69,4.51L212,213.2l.68-4.5c.07-.41.57-.64,1.19-.64s1,.41,1,.77Zm-3.06-.22h0l-.69,4.5-2.19-.18.69-4.51c.06-.36.56-.63,1.19-.54s1.06.36,1,.73Zm-3-.23h0l-.69,4.5-2.19-.18.69-4.5c.06-.37.56-.64,1.18-.59s1,.36,1,.77Zm-3.07-.27h0l-.69,4.5-2.19-.14.69-4.5c.06-.41.56-.64,1.19-.59s1.06.36,1,.73Zm-3-.23h0l-.75,4.5-2.13-.18.63-4.5a1.09,1.09,0,0,1,1.25-.55c.56,0,1,.37,1,.73ZM228,218.43l-1,6.78-33.22-2.64,1-6.78Zm-1.44,9.78L225.47,235l-33.22-2.64,1.07-6.78ZM225,238l-1,6.78-33.22-2.64,1-6.78Zm-1.44,9.73-1.06,6.83-33.15-2.64,1-6.82Zm-1.5,9.78L220,271.88c-.5-.1-1-.19-1.56-.32L220,261.05c.13-1.05-1.12-2-2.87-2.14s-3.26.59-3.38,1.69l-1.5,10.09-1.63-.13,1.5-10.1c.13-1-1.12-2-2.81-2.14s-3.25.59-3.38,1.64l-1.56,10.28c-.5-.05-1-.05-1.44-.05h-.19l1.56-10.37c.13-1-1.12-2-2.81-2.14s-3.25.6-3.44,1.64l-1.63,11.1-1.69.14,1.69-11.37c.19-1-1.12-2-2.81-2.14s-3.25.59-3.38,1.68l-1.94,12.69c-.62.09-1.31.23-1.94.36l2.51-16.91Z" transform="translate(-98.88 -88.88)"/><path class="cls-3" d="M443.64,281.43l-24,.18,3.19-2.82h0l1.19-1h0l.75-.68h0l1.19-1h0l.75-.68h0l1.12-.95,15.83-13.83,15.95,13.6-.44.32,10.07-6.82v0c2,1.27,4,2.54,6,3.77,1.38-1.59,3.76-3.59,6.76-3.36h0c5.19.13,5.94,6,5.94,6l-2.75,0,.06,1.14a6.51,6.51,0,0,1,2.19,2.63c.06.05.06.09.13.14l.19.18.06.14a6.62,6.62,0,0,0,.37.59l-11.07,0c3.69,0,7.38,0,11.07,0l-.18-.23-.13-.22-.06-.14a6.62,6.62,0,0,0,.37.59,13.18,13.18,0,0,1,.63,1.32l5.81.18c.94.18,1.44.14,2.07,2.37l-18,.09c.06.22-8.51-.09-8.51-.09L452,282.7a5.36,5.36,0,0,0-.12-1.18ZM461,276.2h0a7.2,7.2,0,0,1,.81.22,7.2,7.2,0,0,0-.81-.22Zm4.19.91a4,4,0,0,1,.69,0,4,4,0,0,0-.69,0Zm3.82,4.13a3.13,3.13,0,0,0-.69-.31,3.13,3.13,0,0,1,.69.31Zm18.64-3.18c-.07-.05-.07-.09-.13-.14h0Z" transform="translate(-98.88 -88.88)"/><path class="cls-3" d="M478.22,250.41v1.36h-9.57v7.32h4.13l-2.87.69V283h-6.32v-23.2l-2.94-.73h4.19v-7.32H433v7.32h4.19l-2.87.69V283h-6.38v-23.2l-2.82-.73h4.13v-7.32h-9.57v-1.36h-2.57v-1h12.14v-4h-2.88V243.9c-3.94-.41-8-.91-12.07-1.5V239c-1.5-.19-3.07-.41-4.63-.69v-2.73c-1.75-.22-3.56-.5-5.31-.77v-2.46a371.68,371.68,0,0,0,89.13,0v2.46c-1.76.27-3.51.55-5.32.77v2.73c-1.5.28-3.07.5-4.63.73v3.32c-3.94.64-8,1.18-12.07,1.59v1.46h-2.82v4h12.08v1Zm-42.34-5.73v.77H433v4h13.07V245c-3.37,0-6.75-.18-10.19-.36Zm29,.77H462v-.73c-3.31.23-6.75.32-10.13.37v4.32h13Z" transform="translate(-98.88 -88.88)"/><path class="cls-3" d="M453.51,144.7c-1.48,1.31-1.06,1.15-4.5.2-3-.91-1.59-1.21-4.29.25-2.44,1.36-6.41,2.72-8.26,3.78.69,1.46,6.62,6.24,8.05,8.21-.53.25-1,.45-1.54.7-.9.41-.69.41-1.75-.2-2.33-1.26-9.79-5.29-11.28-5.89-2,.8-7.15,3.32-8.95,3.22-.85-.05-2.22-.25-2-1.26.69-2.46,5.35-3.83,8.37-5.09,1.22-.5.9-.45,1.17-1.71s2.33-11.23,2.8-11.74c.21-.15,1.86-.8,2.17-.95a24,24,0,0,1,.32,2.87l.53,5.59a16.23,16.23,0,0,0,.32,2.82c1.38-.65,2.75-1.21,4.18-1.86,7.1-3.23,5.83-1.06,7.47-4.69.95-2,.95-3.22,3-2.92-.37,4,.79,6.55,4.13,8.67Zm-52-41c1.75.47,1.36.51,3.79-1.42,2.14-1.68.83-1.43,3.7-1.22,2.52.17,6.41-.13,8.4,0,.05,1.3-2.91,6.93-3.3,8.9h1.55c.93,0,.73.08,1.41-.72,1.41-1.76,5.88-7.34,6.9-8.26,2,0,7.29,0,8.75-.59.68-.33,1.75-1,1.12-1.68-1.61-1.59-6-1-9-1-1.21,0-.92,0-1.7-.88s-6.56-7.68-7.15-7.89c-.24,0-1.89,0-2.18,0a14,14,0,0,0,.87,2.26l1.9,4.41a20.85,20.85,0,0,1,.92,2.22c-1.41,0-2.82,0-4.27,0-7.2,0-5.2,1.22-8.12-1-1.6-1.22-2.09-2.1-3.69-1.18,1.94,2.9,2,5.21.14,7.93Zm-.77-4.28c.72-.08,1,.89.14,1l-1.16.13c-.73.12-1-.88-.2-1ZM252.63,162.7c-.57.63-2.12.16-1.63-.39l.43-.52c.56-.58,2.11-.11,1.55.44Zm2.68-3.11c-.57.59-2.12.16-1.56-.43l.78-.87c.49-.59,2-.11,1.55.44Zm3.17-3.46c-.49.55-2.12.16-1.55-.43l.84-.87c.5-.55,2.05-.15,1.56.48Zm3.39-3.38c-.64.59-2.12,0-1.56-.47l.92-.87c.64-.59,2,0,1.48.47Zm3.52-3.34c-.63.55-2.11,0-1.48-.52l.92-.82c.56-.55,2.11,0,1.48.51Zm3.74-3.31c-.56.51-2.11,0-1.48-.51l1-.83c.56-.51,2.11,0,1.41.56Zm3.88-3.18c-.7.51-2-.08-1.41-.59l1-.79c.7-.51,2.11.08,1.41.59Zm4.09-3.15c-.7.51-2-.08-1.34-.59l1.06-.79c.71-.51,2.05.12,1.34.59Zm4.1-3c-.64.2-1.42-.12-1.34-.51-.08-.24.28-.55.77-.59l.57-.39c.7-.48,2.11.11,1.34.62l-.15.12.29,0c1.13.24.42,1.14-.64.91Zm4.72-3.07c-.85.47-2-.19-1.27-.67l1.13-.7c.85-.52,2.05.19,1.27.63Zm4.73-2.87c-.78.47-2.12-.2-1.27-.67l1.2-.71c.77-.47,2,.2,1.27.67Zm4.87-2.75c-.92.43-2-.32-1.2-.71l1.2-.67c.91-.47,2,.28,1.27.71Zm5.07-2.68c-.84.44-2-.27-1.19-.7l1.34-.67c.84-.43,2,.31,1.12.74Zm5.23-2.51c-.78.39-2-.32-1.06-.75l1.34-.63c1-.43,2,.39,1.06.75Zm5.5-2.44c-1,.39-2-.39-1.06-.75l1.34-.59c1-.39,2,.39,1.06.75Zm5.57-2.28c-.85.35-2-.4-1-.79.5-.2,1-.39,1.48-.55.85-.35,2,.39,1,.79-.49.19-1,.35-1.48.55Zm5.79-2.17c-1,.36-1.84-.51-.92-.82l1.48-.51c1-.36,1.9.51.92.82Zm5.92-2c-.92.31-1.9-.51-.84-.87l1.55-.47c.91-.31,1.9.51.84.87Zm6.14-1.89c-1.13.31-1.84-.59-.85-.86l1.55-.48c1.06-.27,1.84.63.85.91Zm6.21-1.73c-1,.28-1.84-.59-.78-.9.56-.12,1.06-.28,1.62-.4,1-.27,1.77.59.71.87-.5.15-1.06.27-1.55.43Zm6.34-1.61c-1.12.23-1.69-.67-.7-.91l1.62-.39c1.13-.24,1.69.71.64.9Zm6.42-1.46c-1,.24-1.69-.67-.63-.9l1.69-.36c1-.23,1.7.67.57.91Zm6.56-1.33c-1,.19-1.69-.71-.56-.91.56-.12,1.13-.24,1.69-.31,1-.24,1.63.66.5.9l-1.63.32Zm6.64-1.18c-1.2.15-1.56-.79-.5-.95l1.69-.27c1.13-.16,1.56.78.43.94Zm6.7-1.07c-1.13.16-1.55-.78-.43-.94l1.7-.24c1.06-.15,1.55.79.42,1Zm6.77-.9c-1.06.16-1.62-.79-.42-1l1.76-.2c1.2-.12,1.41.86.35.94Zm6.77-.83c-1.13.12-1.41-.82-.28-.94l1.69-.16c1.2-.12,1.48.83.36,1Zm6.92-.67c-1.13.12-1.49-.82-.29-.94l1.7-.16c1.13-.12,1.48.87.28,1Zm-194.6,33.08c-2,1-1.41.9-6,.11-4-.67-2.12-.94-5.71.24-1.95.61-4.64,1.26-7,1.85a1.83,1.83,0,0,0-.44,3.37,76.58,76.58,0,0,1,7.17,4.14c-.7.2-1.26.31-2,.51-1.2.36-.92.36-2.33-.12-2.91-.92-11.86-3.78-14.58-4.49a1.79,1.79,0,0,0-.89,0c-2.88.72-9.2,2.48-11.48,2.41-1.13,0-3-.24-2.61-1,.92-1.93,7.13-3,11.15-4,1.62-.39,1.2-.31,1.55-1.29s3.11-8.77,3.74-9.17a8.44,8.44,0,0,1,1-.3,1.83,1.83,0,0,1,2.28,1.54l0,.22.7,4.4v0a1.8,1.8,0,0,0,2.27,1.67c1.23-.31,2.46-.63,3.73-.94,9.45-2.52,7.69-.83,9.94-3.66.3-.37.53-.71.73-1a1.83,1.83,0,0,1,3.3.75c.39,2,2.1,3.47,5.5,4.74Zm-2.05-3.9c-1.06.2-.63,1.1.57.95l1.62-.32c1-.16.63-1.1-.57-.94Zm143.46,26.16c.91.43,1.9-.35,1.05-.75l-.7-.31c-1-.43-2,.35-1.13.75ZM336,154.56c.92.39,2-.36,1.13-.75l-1.41-.63c-.92-.39-2,.39-1.06.79Zm-5.5-2.36c.84.39,2-.36,1.05-.79l-1.41-.59c-.91-.35-2,.4-1,.79Zm-5.65-2.28c1,.39,1.91-.47,1-.79l-1.48-.55c-1-.39-1.91.47-1,.79Zm-5.78-2.17c1,.36,1.9-.47,1-.82l-1.49-.51c-1-.36-2,.43-1,.78Zm-5.86-2.08c.92.31,1.91-.47.85-.83l-1.48-.51c-.92-.31-1.91.47-.92.83Zm-6.06-2c1.13.32,1.83-.55.91-.86l-1.55-.47c-1.06-.32-1.83.55-.85.86Zm-6.07-1.85c1.06.28,1.76-.59.77-.86l-1.55-.47c-1.06-.28-1.83.59-.77.86Zm-6.28-1.73c1.06.28,1.83-.59.78-.9l-1.56-.39c-1-.28-1.83.55-.77.86Zm-6.28-1.61c1.13.24,1.69-.67.64-.9l-1.63-.4c-1.05-.23-1.69.67-.63.91Zm-13-2.83c1.2.2,1.55-.75.57-.9l-1.7-.32c-1.2-.2-1.55.75-.56.9Zm-6.63-1.18c1.06.2,1.55-.75.49-.94l-1.69-.28c-1.13-.16-1.62.79-.49.94Zm-6.7-1c1,.15,1.62-.75.42-.95L261,132.3c-1.27-.16-1.48.82-.42.94Zm-6.77-.91c1.13.12,1.41-.82.35-.94l-1.76-.2c-1.13-.12-1.49.83-.36.95Zm-6.85-.71c1.06.12,1.49-.82.29-1-.57,0-1.2-.12-1.77-.16-1.05-.11-1.48.83-.28,1,.57,0,1.2.08,1.76.15Zm-6.91-.59c1.2.08,1.34-.9.21-.94l-1.69-.12c-1.2-.08-1.34.91-.21.95Zm-6.91-.39c1.13,0,1.34-.9.14-1l-1.77-.08c-1.05-.08-1.33.9-.07,1Zm-6.92-.27c1.2,0,1.13-1,.08-1l-1.77,0c-1.2,0-1.2.95-.07.95Zm-7-.08c1.13,0,1.2-1,0-1h-1.76c-1.06,0-1.2,1,0,1Zm-7,.08c1.27-.08,1-1-.07-1l-1.7,0c-1.2,0-1.06,1,.07,1Zm-6.92.19c1.13,0,1-1-.14-1l-1.76.08c-1.13,0-1,1,.14,1Zm245,8.91a.64.64,0,1,0,.43,1.21l1.22-.41a.62.62,0,1,0-.43-1.15Zm138,27.15c.69.51,1.48-.5.79-1l-.52-.45c-.74-.55-1.49.5-.85,1Zm-3.65-2.77c.69.51,1.48-.5.85-1l-1.06-.75c-.69-.51-1.49.45-.8,1ZM582.16,161c.63.5,1.48-.45.79-1l-1.06-.76c-.69-.5-1.54.46-.79,1Zm-4.24-2.87c.74.45,1.43-.61.74-1.06l-1.06-.71c-.79-.45-1.48.61-.74,1.06Zm-4.34-2.82a.65.65,0,0,0,.74-1.06l-1.11-.66c-.75-.45-1.43.61-.75,1.06Zm-4.4-2.67a.63.63,0,1,0,.69-1.06l-1.17-.66a.64.64,0,0,0-.63,1.11Zm-4.5-2.52a.62.62,0,1,0,.63-1.06l-1.16-.66c-.8-.35-1.38.76-.64,1.11Zm-4.61-2.37a.63.63,0,1,0,.58-1.11l-1.16-.55a.63.63,0,1,0-.59,1.11Zm-4.71-2.22c.79.35,1.37-.75.58-1.11l-1.17-.55c-.74-.35-1.37.76-.58,1.11Zm-4.72-2.06a.63.63,0,1,0,.48-1.16l-1.16-.51c-.85-.3-1.33.91-.53,1.16Zm-4.87-1.87a.65.65,0,1,0,.48-1.21L545,140a.63.63,0,1,0-.48,1.16Zm-4.87-1.71a.64.64,0,0,0,.42-1.21l-1.27-.4a.64.64,0,1,0-.42,1.21Zm-5-1.56a.61.61,0,1,0,.37-1.16l-1.27-.35a.61.61,0,1,0-.37,1.16Zm-5-1.31a.63.63,0,1,0,.32-1.21l-1.27-.3a.63.63,0,1,0-.32,1.21Zm-5.08-1.11a.64.64,0,0,0,.26-1.26l-1.33-.25a.61.61,0,1,0-.21,1.21Zm-5.14-1a.61.61,0,1,0,.21-1.21c-.42-.1-.85-.15-1.33-.25-.74-.1-1.11,1.11-.21,1.26.48,0,.9.15,1.33.2Zm-5.19-.75a.61.61,0,1,0,.15-1.21l-1.27-.15a.61.61,0,1,0-.15,1.21Zm-5.19-.51a.63.63,0,1,0,.1-1.26l-1.32-.1a.63.63,0,1,0-.05,1.26Zm-5.19-.3a.63.63,0,1,0,0-1.26l-1.33-.05a.63.63,0,1,0-.05,1.26Zm-5.25-.15a.63.63,0,1,0,0-1.26h-1.32a.63.63,0,1,0,0,1.26Zm-5.24.1a.63.63,0,1,0-.05-1.26l-1.27.05a.63.63,0,1,0,0,1.26Zm-5.19.25a.61.61,0,1,0-.11-1.21l-1.32.1a.61.61,0,1,0,.1,1.21Zm-5.19.51a.64.64,0,1,0-.16-1.26l-1.32.15a.61.61,0,1,0,.16,1.21,10.74,10.74,0,0,1,1.32-.1Zm-5.19.6a.61.61,0,1,0-.21-1.21l-1.33.2a.61.61,0,1,0,.21,1.21Zm-5.19.86a.61.61,0,1,0-.21-1.21l-1.33.2a.64.64,0,0,0,.27,1.26Zm-5.09,1a.62.62,0,1,0-.31-1.2l-1.27.25a.63.63,0,1,0,.31,1.21Zm-5.08,1.16a.63.63,0,1,0-.32-1.21l-1.32.31a.63.63,0,1,0,.37,1.21Zm-5,1.31a.63.63,0,0,0-.37-1.21l-1.27.36a.63.63,0,1,0,.37,1.21Z" transform="translate(-98.88 -88.88)"/><text class="cls-4" transform="translate(87.37 232.3) scale(1.69 1)">ERASMUS +</text></svg>