<?xml version="1.0" encoding="utf-8"?>
<!-- Generator: Adobe Illustrator 25.0.0, SVG Export Plug-In . SVG Version: 6.00 Build 0)  -->
<svg version="1.1" id="Capa_1" xmlns="http://www.w3.org/2000/svg" xmlns:xlink="http://www.w3.org/1999/xlink" x="0px" y="0px"
	 viewBox="0 0 512 512" style="enable-background:new 0 0 512 512;" xml:space="preserve">
<style type="text/css">
	.st0{fill:#F7FCFF;stroke:#000000;stroke-width:0.75;stroke-miterlimit:10;}
	.st1{fill:#F7FCFF;stroke:#000000;stroke-miterlimit:10;}
	.st2{fill:none;stroke:#000000;stroke-width:0.5;stroke-miterlimit:10;}
	.st3{fill:none;stroke:#000000;stroke-width:0.75;stroke-miterlimit:10;}
</style>
<rect x="288" y="112" class="st0" width="192" height="288"/>
<polygon class="st0" points="32,93.3 256,51.3 256,460.7 32,418.7 "/>
<path class="st1" d="M735-123.1"/>
<g>
	<g>
		<path class="st2" d="M282.2,19.7c-3.6-3-8.5-4.3-13.2-3.4l-256,48C5.5,65.7,0,72.3,0,80v352c0,7.7,5.5,14.3,13.1,15.7l256,48
			c1,0.2,2,0.3,2.9,0.3c3.7,0,7.3-1.3,10.2-3.7c3.7-3,5.8-7.6,5.8-12.3V32C288,27.2,285.9,22.7,282.2,19.7z M256,460.7l-224-42V93.3
			l224-42V460.7z"/>
	</g>
</g>
<g>
	<g>
		<path class="st3" d="M496,80H272c-8.8,0-16,7.2-16,16s7.2,16,16,16h208v288H272c-8.8,0-16,7.2-16,16s7.2,16,16,16h224
			c8.8,0,16-7.2,16-16V96C512,87.2,504.8,80,496,80z"/>
	</g>
</g>
<g>
	<g>
		<path d="M341.3,144h-42.7c-5.9,0-10.7,7.2-10.7,16s4.8,16,10.7,16h42.7c5.9,0,10.7-7.2,10.7-16S347.2,144,341.3,144z"/>
	</g>
</g>
<g>
	<g>
		<path d="M341.5,208h-42c-5.8,0-10.5,7.2-10.5,16s4.7,16,10.5,16h42c5.8,0,10.5-7.2,10.5-16S347.3,208,341.5,208z"/>
	</g>
</g>
<g>
	<g>
		<path d="M341.5,272h-42c-5.8,0-10.5,7.2-10.5,16s4.7,16,10.5,16h42c5.8,0,10.5-7.2,10.5-16S347.3,272,341.5,272z"/>
	</g>
</g>
<g>
	<g>
		<path d="M341.5,336h-42c-5.8,0-10.5,7.2-10.5,16s4.7,16,10.5,16h42c5.8,0,10.5-7.2,10.5-16S347.3,336,341.5,336z"/>
	</g>
</g>
<g>
	<g>
		<path d="M432,144h-32c-8.8,0-16,7.2-16,16s7.2,16,16,16h32c8.8,0,16-7.2,16-16S440.8,144,432,144z"/>
	</g>
</g>
<g>
	<g>
		<path d="M432,208h-32c-8.8,0-16,7.2-16,16s7.2,16,16,16h32c8.8,0,16-7.2,16-16S440.8,208,432,208z"/>
	</g>
</g>
<g>
	<g>
		<path d="M432,272h-32c-8.8,0-16,7.2-16,16s7.2,16,16,16h32c8.8,0,16-7.2,16-16S440.8,272,432,272z"/>
	</g>
</g>
<g>
	<g>
		<path d="M432,336h-32c-8.8,0-16,7.2-16,16s7.2,16,16,16h32c8.8,0,16-7.2,16-16S440.8,336,432,336z"/>
	</g>
</g>
<g>
	<g>
		<path d="M220.1,309.5l-112-128c-5.9-6.7-16-7.3-22.6-1.5c-6.7,5.8-7.3,15.9-1.5,22.6l112,128c3.2,3.6,7.6,5.5,12,5.5
			c3.7,0,7.5-1.3,10.6-4C225.2,326.2,225.9,316.1,220.1,309.5z"/>
	</g>
</g>
<g>
	<g>
		<path d="M217.8,163.4c-7-5.5-17-4.2-22.5,2.8l-112,144c-5.4,7-4.2,17.1,2.8,22.5c2.9,2.3,6.4,3.4,9.8,3.4c4.7,0,9.5-2.1,12.6-6.1
			l112-144C226,178.8,224.8,168.8,217.8,163.4z"/>
	</g>
</g>
</svg>
