<?xml version="1.0" encoding="utf-8"?>
<!-- Generator: Adobe Illustrator 25.0.0, SVG Export Plug-In . SVG Version: 6.00 Build 0)  -->
<svg version="1.1" id="Capa_1" xmlns="http://www.w3.org/2000/svg" xmlns:xlink="http://www.w3.org/1999/xlink" x="0px" y="0px"
	 viewBox="0 0 512 512" style="enable-background:new 0 0 512 512;" xml:space="preserve">
<style type="text/css">
	.st0{fill:#F7FCFF;stroke:#000000;stroke-miterlimit:10;}
	.st1{fill:none;stroke:#1D1D1B;stroke-width:0.5;stroke-miterlimit:10;}
</style>
<rect x="30" y="30" class="st0" width="452" height="452"/>
<g>
	<g>
		<path class="st1" d="M0,0v512h512V0H0z M482,482H30V30h452V482z"/>
	</g>
</g>
<g>
	<g>
		<path d="M213.1,181.6h-72.2V352H174v-57.1h40.3c29.5,0,53-25.7,53-56.6C267.3,212,246.2,181.6,213.1,181.6z M212.4,265.8H174
			v-55.2h37c14.1,0,22.8,13.2,22.8,27.6C233.7,255,224,265.8,212.4,265.8z"/>
	</g>
</g>
<g>
	<g>
		<path d="M336.9,276.6c-4.6-1.1-24.7-4.4-24.7-15.8c0-9.2,7.5-14.2,19.2-14.2c15.8,0,30.1,9.1,36.5,13.9l13-19.4
			c-6.9-6.1-21.6-17.3-49.2-17.3c-26.3,0-49.4,14.9-49.4,41.5c0,27.6,36.7,32.8,44.9,35c9.8,2.7,27.6,6.2,27.6,17
			c0,8.8-8.4,13.9-20.6,13.9c-18.8,0-36.5-11.1-44.2-16.6l-12,20.2c7.2,6.2,27.9,19.4,56.9,19.4c15.7,0,50.9-4.9,50.9-39.8
			C385.7,285,345.6,278.9,336.9,276.6z"/>
	</g>
</g>
</svg>
