<?xml version="1.0" encoding="utf-8"?>
<!-- Generator: Adobe Illustrator 25.0.0, SVG Export Plug-In . SVG Version: 6.00 Build 0)  -->
<svg version="1.1" id="Capa_1" xmlns="http://www.w3.org/2000/svg" xmlns:xlink="http://www.w3.org/1999/xlink" x="0px" y="0px"
	 viewBox="0 0 512 512" style="enable-background:new 0 0 512 512;" xml:space="preserve">
<style type="text/css">
	.st0{fill:#F7FCFF;stroke:#000000;stroke-miterlimit:10;}
	.st1{fill:none;stroke:#1D1D1B;stroke-width:0.75;stroke-miterlimit:10;}
	.st2{fill:none;stroke:#1D1D1B;stroke-width:0.5;stroke-miterlimit:10;}
</style>
<rect x="288" y="112" class="st0" width="192" height="288"/>
<polygon class="st0" points="32,93.3 32,418.7 256,460.7 256,51.3 "/>
<g>
	<g>
		<path class="st1" d="M282.2,19.7c-3.6-3-8.5-4.3-13.2-3.4l-256,48C5.5,65.7,0,72.3,0,80v352c0,7.7,5.5,14.3,13.1,15.7l256,48
			c1,0.2,2,0.3,2.9,0.3c3.7,0,7.3-1.3,10.2-3.7c3.7-3,5.8-7.6,5.8-12.3V32C288,27.2,285.9,22.7,282.2,19.7z M256,460.7l-224-42V93.3
			l224-42V460.7z"/>
	</g>
</g>
<g>
	<g>
		<path class="st2" d="M496,80H272c-8.8,0-16,7.2-16,16s7.2,16,16,16h208v288H272c-8.8,0-16,7.2-16,16s7.2,16,16,16h224
			c8.8,0,16-7.2,16-16V96C512,87.2,504.8,80,496,80z"/>
	</g>
</g>
<g>
	<g>
		<path d="M432,336H272c-8.8,0-16,7.2-16,16s7.2,16,16,16h160c8.8,0,16-7.2,16-16S440.8,336,432,336z"/>
	</g>
</g>
<g>
	<g>
		<path d="M112,176c-8.8,0-16,7.2-16,16v160c0,8.8,7.2,16,16,16s16-7.2,16-16V192C128,183.2,120.8,176,112,176z"/>
	</g>
</g>
<g>
	<g>
		<path d="M160,176h-48c-8.8,0-16,7.2-16,16s7.2,16,16,16h48c17.6,0,32,14.4,32,32s-14.4,32-32,32h-48c-8.8,0-16,7.2-16,16
			s7.2,16,16,16h48c35.3,0,64-28.7,64-64S195.3,176,160,176z"/>
	</g>
</g>
<g>
	<g>
		<path d="M368,144c-44.1,0-80,35.9-80,80s35.9,80,80,80s80-35.9,80-80S412.1,144,368,144z M368,272c-26.5,0-48-21.5-48-48
			s21.5-48,48-48s48,21.5,48,48S394.5,272,368,272z"/>
	</g>
</g>
<g>
	<g>
		<path d="M432,208h-48v-48c0-8.8-7.2-16-16-16s-16,7.2-16,16v64c0,8.8,7.2,16,16,16h64c8.8,0,16-7.2,16-16S440.8,208,432,208z"/>
	</g>
</g>
</svg>
