<?xml version="1.0" encoding="utf-8"?>
<!-- Generator: Adobe Illustrator 25.0.0, SVG Export Plug-In . SVG Version: 6.00 Build 0)  -->
<svg version="1.1" id="Capa_1" xmlns="http://www.w3.org/2000/svg" xmlns:xlink="http://www.w3.org/1999/xlink" x="0px" y="0px"
	 viewBox="0 0 512 512" style="enable-background:new 0 0 512 512;" xml:space="preserve">
<style type="text/css">
	.st0{fill:#F7FCFF;}
	.st1{fill:none;stroke:#1D1D1B;stroke-width:0.5;stroke-miterlimit:10;}
	.st2{fill:none;stroke:#000000;stroke-width:0.5;stroke-miterlimit:10;}
	.st3{fill:#F7FCFF;stroke:#1D1D1B;stroke-width:0.75;stroke-miterlimit:10;}
</style>
<rect x="288" y="112" class="st0" width="192" height="288"/>
<g>
	<g>
		<path class="st1" d="M282.2,19.7c-3.6-3-8.5-4.3-13.2-3.4l-256,48C5.5,65.7,0,72.3,0,80v352c0,7.7,5.5,14.3,13.1,15.7l256,48
			c1,0.2,2,0.3,2.9,0.3c3.7,0,7.3-1.3,10.2-3.7c3.7-3,5.8-7.6,5.8-12.3V32C288,27.2,285.9,22.7,282.2,19.7z M256,460.7l-224-42V93.3
			l224-42V460.7z"/>
	</g>
</g>
<g>
	<g>
		<path class="st2" d="M496,80H272c-8.8,0-16,7.2-16,16s7.2,16,16,16h208v288H272c-8.8,0-16,7.2-16,16s7.2,16,16,16h224
			c8.8,0,16-7.2,16-16V96C512,87.2,504.8,80,496,80z"/>
	</g>
</g>
<g>
	<g>
		<path d="M432,144H272c-8.8,0-16,7.2-16,16s7.2,16,16,16h160c8.8,0,16-7.2,16-16S440.8,144,432,144z"/>
	</g>
</g>
<g>
	<g>
		<path d="M432,208H272c-8.8,0-16,7.2-16,16s7.2,16,16,16h160c8.8,0,16-7.2,16-16S440.8,208,432,208z"/>
	</g>
</g>
<g>
	<g>
		<path d="M432,272H272c-8.8,0-16,7.2-16,16s7.2,16,16,16h160c8.8,0,16-7.2,16-16S440.8,272,432,272z"/>
	</g>
</g>
<g>
	<g>
		<path d="M432,336H272c-8.8,0-16,7.2-16,16s7.2,16,16,16h160c8.8,0,16-7.2,16-16S440.8,336,432,336z"/>
	</g>
</g>
<polygon class="st3" points="32,93.3 256,51.3 256,460.7 32,418.7 "/>
<g>
	<g>
		<path d="M209.8,176.1c-8.5-0.9-16.7,5.3-17.7,14.1l-8.6,77.5L159,202.4c-4.7-12.5-25.3-12.5-30,0l-26,69.4l-7.1-50
			c-1.2-8.8-9.4-15-18.1-13.6c-8.7,1.2-14.8,9.3-13.6,18.1l16,112c1,7.3,6.8,12.9,14.1,13.7c7.4,0.7,14.1-3.4,16.7-10.3l33-88.1
			l33,88.1c2.4,6.3,8.4,10.4,15,10.4c0.7,0,1.3,0,2-0.2c7.3-0.9,13.1-6.8,13.9-14.1l16-144C224.9,185,218.6,177.1,209.8,176.1z"/>
	</g>
</g>
</svg>
